<svg width="188" height="188" viewBox="0 0 188 188" fill="none" xmlns="http://www.w3.org/2000/svg">
<rect x="30.6138" y="3.52463" width="156" height="156" transform="rotate(10 30.6138 3.52463)" stroke="#161616" stroke-width="6"/>
<path d="M30.6602 87.6122L30.5482 88.6482L31.1642 87.8642L37.8842 80.2762H43.1482L34.6362 89.5162L43.1762 100.884H38.0242L31.6682 92.0922L30.6602 93.1002V100.884H26.5442V80.2762H30.6602V87.6122ZM46.2591 80.2762H50.3191V100.884H46.2591V80.2762ZM74.09 101.724L58.466 87.6122L59.67 88.2842L59.754 100.884H55.638V79.4642H55.806L71.094 93.5202L70.198 93.1282L70.114 80.2762H74.202V101.724H74.09ZM96.2251 98.8122C95.9824 99.0735 95.5997 99.3442 95.0771 99.6242C94.5544 99.8855 93.9477 100.128 93.2571 100.352C92.5851 100.576 91.8944 100.753 91.1851 100.884C90.4757 101.033 89.8037 101.108 89.1691 101.108C87.4891 101.108 85.9771 100.865 84.6331 100.38C83.2891 99.8762 82.1411 99.1855 81.1891 98.3082C80.2371 97.4122 79.5091 96.3575 79.0051 95.1442C78.5011 93.9308 78.2491 92.6055 78.2491 91.1682C78.2491 89.2828 78.5291 87.6495 79.0891 86.2682C79.6677 84.8682 80.4424 83.7108 81.4131 82.7962C82.4024 81.8628 83.5317 81.1722 84.8011 80.7242C86.0891 80.2762 87.4331 80.0522 88.8331 80.0522C90.1584 80.0522 91.3717 80.2015 92.4731 80.5002C93.5744 80.7802 94.5077 81.1348 95.2731 81.5642L93.9571 85.3442C93.6211 85.1575 93.1731 84.9708 92.6131 84.7842C92.0531 84.5975 91.4837 84.4482 90.9051 84.3362C90.3264 84.2055 89.8131 84.1402 89.3651 84.1402C88.2451 84.1402 87.2557 84.2802 86.3971 84.5602C85.5384 84.8402 84.8104 85.2602 84.2131 85.8202C83.6344 86.3802 83.1957 87.0802 82.8971 87.9202C82.5984 88.7415 82.4491 89.7028 82.4491 90.8042C82.4491 91.7748 82.6171 92.6522 82.9531 93.4362C83.2891 94.2015 83.7557 94.8548 84.3531 95.3962C84.9691 95.9375 85.6877 96.3482 86.5091 96.6282C87.3491 96.9082 88.2731 97.0482 89.2811 97.0482C89.8597 97.0482 90.3917 97.0108 90.8771 96.9362C91.3624 96.8428 91.7731 96.7028 92.1091 96.5162V94.0242H88.5531V90.1042H96.2251V98.8122ZM42.0002 127.176C41.7762 127.363 41.3562 127.615 40.7402 127.932C40.1429 128.249 39.4056 128.529 38.5282 128.772C37.6509 129.015 36.6802 129.127 35.6162 129.108C33.9922 129.071 32.5362 128.781 31.2482 128.24C29.9789 127.68 28.8962 126.924 28.0002 125.972C27.1229 125.02 26.4509 123.928 25.9842 122.696C25.5175 121.464 25.2842 120.148 25.2842 118.748C25.2842 117.18 25.5175 115.743 25.9842 114.436C26.4695 113.129 27.1509 112 28.0282 111.048C28.9242 110.096 29.9882 109.359 31.2202 108.836C32.4522 108.313 33.8149 108.052 35.3082 108.052C36.6896 108.052 37.9122 108.239 38.9762 108.612C40.0402 108.985 40.9082 109.387 41.5802 109.816L39.9842 113.652C39.5176 113.297 38.8922 112.933 38.1082 112.56C37.3429 112.168 36.4562 111.972 35.4482 111.972C34.6642 111.972 33.9082 112.14 33.1802 112.476C32.4709 112.793 31.8362 113.251 31.2762 113.848C30.7349 114.445 30.3055 115.145 29.9882 115.948C29.6709 116.732 29.5122 117.591 29.5122 118.524C29.5122 119.513 29.6522 120.419 29.9322 121.24C30.2309 122.061 30.6509 122.771 31.1922 123.368C31.7336 123.947 32.3776 124.395 33.1242 124.712C33.8896 125.029 34.7482 125.188 35.7002 125.188C36.8016 125.188 37.7442 125.011 38.5282 124.656C39.3122 124.301 39.9095 123.928 40.3202 123.536L42.0002 127.176ZM63.3997 108.276V128.884H59.3397V120.512H50.1277V128.884H46.0677V108.276H50.1277V116.592H59.3397V108.276H63.3997ZM66.3843 128.884L75.6803 107.464H75.9043L85.2003 128.884H80.4963L74.5603 113.82L77.5003 111.804L70.3883 128.884H66.3843ZM72.7403 121.436H78.9283L80.3563 124.852H71.4803L72.7403 121.436ZM94.4484 108.276C95.7364 108.276 96.8844 108.444 97.8924 108.78C98.9004 109.097 99.7404 109.564 100.412 110.18C101.103 110.777 101.626 111.505 101.98 112.364C102.335 113.204 102.512 114.156 102.512 115.22C102.512 116.06 102.382 116.9 102.12 117.74C101.878 118.58 101.467 119.345 100.888 120.036C100.328 120.727 99.5817 121.287 98.6484 121.716C97.715 122.127 96.5577 122.332 95.1764 122.332H92.2644V128.884H88.2044V108.276H94.4484ZM95.1484 118.412C95.7644 118.412 96.2777 118.309 96.6884 118.104C97.099 117.899 97.4164 117.637 97.6404 117.32C97.883 117.003 98.051 116.676 98.1444 116.34C98.2564 115.985 98.3124 115.659 98.3124 115.36C98.3124 115.136 98.275 114.856 98.2004 114.52C98.1444 114.165 98.0137 113.811 97.8084 113.456C97.603 113.101 97.2857 112.803 96.8564 112.56C96.4457 112.317 95.8857 112.196 95.1764 112.196H92.2644V118.412H95.1484ZM98.9564 120.932L104.052 128.884H99.3204L94.1124 121.044L98.9564 120.932ZM107.4 108.276H111.46V124.964H121.148V128.884H107.4V108.276ZM125.337 108.276H139.393V112.196H129.397V116.592H138.245V120.512H129.397V124.964H139.785V128.884H125.337V108.276ZM154.99 113.26C154.206 112.831 153.403 112.476 152.582 112.196C151.779 111.916 151.023 111.776 150.314 111.776C149.436 111.776 148.746 111.953 148.242 112.308C147.738 112.663 147.486 113.195 147.486 113.904C147.486 114.389 147.672 114.828 148.046 115.22C148.438 115.593 148.932 115.929 149.53 116.228C150.146 116.527 150.78 116.797 151.434 117.04C152.031 117.264 152.619 117.535 153.198 117.852C153.795 118.151 154.327 118.533 154.794 119C155.26 119.448 155.634 120.017 155.914 120.708C156.194 121.38 156.334 122.211 156.334 123.2C156.334 124.245 156.063 125.216 155.522 126.112C154.98 127.008 154.187 127.736 153.142 128.296C152.096 128.837 150.808 129.108 149.278 129.108C148.494 129.108 147.691 129.033 146.87 128.884C146.067 128.716 145.274 128.473 144.49 128.156C143.706 127.82 142.95 127.4 142.222 126.896L144.014 123.732C144.499 124.087 145.022 124.404 145.582 124.684C146.16 124.945 146.739 125.151 147.318 125.3C147.896 125.449 148.428 125.524 148.914 125.524C149.399 125.524 149.884 125.459 150.37 125.328C150.874 125.179 151.284 124.936 151.602 124.6C151.938 124.264 152.106 123.797 152.106 123.2C152.106 122.789 151.966 122.416 151.686 122.08C151.424 121.744 151.06 121.436 150.594 121.156C150.146 120.876 149.651 120.633 149.11 120.428C148.475 120.185 147.822 119.905 147.15 119.588C146.478 119.271 145.843 118.888 145.246 118.44C144.667 117.973 144.191 117.404 143.818 116.732C143.463 116.041 143.286 115.201 143.286 114.212C143.286 113.017 143.547 111.981 144.07 111.104C144.611 110.227 145.367 109.536 146.338 109.032C147.308 108.509 148.428 108.22 149.698 108.164C151.359 108.164 152.703 108.36 153.73 108.752C154.775 109.144 155.708 109.611 156.53 110.152L154.99 113.26ZM26.5442 156.884V135.436H26.5722L38.0242 151.676L36.2882 151.284L47.7122 135.436H47.7682V156.884H43.7082V144.592L43.9602 146.692L36.9882 156.604H36.9322L29.7642 146.692L30.4642 144.76V156.884H26.5442ZM50.771 156.884L60.067 135.464H60.291L69.587 156.884H64.883L58.947 141.82L61.887 139.804L54.775 156.884H50.771ZM57.127 149.436H63.315L64.743 152.852H55.867L57.127 149.436ZM78.8351 136.276C80.1231 136.276 81.2711 136.444 82.2791 136.78C83.2871 137.097 84.1271 137.564 84.7991 138.18C85.4898 138.777 86.0124 139.505 86.3671 140.364C86.7218 141.204 86.8991 142.156 86.8991 143.22C86.8991 144.06 86.7684 144.9 86.5071 145.74C86.2644 146.58 85.8538 147.345 85.2751 148.036C84.7151 148.727 83.9684 149.287 83.0351 149.716C82.1018 150.127 80.9444 150.332 79.5631 150.332H76.6511V156.884H72.5911V136.276H78.8351ZM79.5351 146.412C80.1511 146.412 80.6644 146.309 81.0751 146.104C81.4858 145.899 81.8031 145.637 82.0271 145.32C82.2698 145.003 82.4378 144.676 82.5311 144.34C82.6431 143.985 82.6991 143.659 82.6991 143.36C82.6991 143.136 82.6618 142.856 82.5871 142.52C82.5311 142.165 82.4004 141.811 82.1951 141.456C81.9898 141.101 81.6724 140.803 81.2431 140.56C80.8324 140.317 80.2724 140.196 79.5631 140.196H76.6511V146.412H79.5351ZM83.3431 148.932L88.4391 156.884H83.7071L78.4991 149.044L83.3431 148.932ZM95.9024 143.612L95.7904 144.648L96.4064 143.864L103.126 136.276H108.39L99.8784 145.516L108.418 156.884H103.266L96.9104 148.092L95.9024 149.1V156.884H91.7864V136.276H95.9024V143.612ZM111.501 136.276H125.557V140.196H115.561V144.592H124.409V148.512H115.561V152.964H125.949V156.884H111.501V136.276ZM128.75 136.276H142.638V140.196H137.626V156.884H133.566V140.196H128.75V136.276Z" fill="#161616"/>
</svg>
