<svg width="150" height="152" viewBox="0 0 150 152" fill="none" xmlns="http://www.w3.org/2000/svg">
<path d="M0 128.123L22.0106 0L149.932 23.1515L127.922 151.275L0 128.123Z" fill="white"/>
<path d="M16.808 68.1572L16.712 69.0452L17.24 68.3732L23 61.8692H27.512L20.216 69.7892L27.536 79.5332H23.12L17.672 71.9972L16.808 72.8612V79.5332H13.28V61.8692H16.808V68.1572Z" fill="#030303"/>
<path d="M30.1784 61.8692H33.6584V79.5332H30.1784V61.8692Z" fill="#030303"/>
<path d="M54.0335 80.2532L40.6415 68.1572L41.6735 68.7332L41.7455 79.5332H38.2175V61.1732H38.3615L51.4655 73.2212L50.6975 72.8852L50.6255 61.8692H54.1295V80.2532H54.0335Z" fill="#030303"/>
<path d="M73.0064 77.7572C72.7984 77.9812 72.4704 78.2132 72.0224 78.4532C71.5744 78.6772 71.0544 78.8852 70.4624 79.0772C69.8864 79.2692 69.2944 79.4212 68.6864 79.5332C68.0784 79.6612 67.5024 79.7252 66.9584 79.7252C65.5184 79.7252 64.2224 79.5172 63.0704 79.1012C61.9184 78.6692 60.9344 78.0772 60.1184 77.3252C59.3024 76.5572 58.6784 75.6532 58.2464 74.6132C57.8144 73.5732 57.5984 72.4372 57.5984 71.2052C57.5984 69.5892 57.8384 68.1892 58.3184 67.0052C58.8144 65.8052 59.4784 64.8132 60.3104 64.0292C61.1584 63.2292 62.1264 62.6372 63.2144 62.2532C64.3184 61.8692 65.4704 61.6772 66.6704 61.6772C67.8064 61.6772 68.8464 61.8052 69.7904 62.0612C70.7344 62.3012 71.5344 62.6052 72.1904 62.9732L71.0624 66.2132C70.7744 66.0532 70.3904 65.8932 69.9104 65.7332C69.4304 65.5732 68.9424 65.4452 68.4464 65.3492C67.9504 65.2372 67.5104 65.1812 67.1264 65.1812C66.1664 65.1812 65.3184 65.3012 64.5824 65.5412C63.8464 65.7812 63.2224 66.1412 62.7104 66.6212C62.2144 67.1012 61.8384 67.7012 61.5824 68.4212C61.3264 69.1252 61.1984 69.9492 61.1984 70.8932C61.1984 71.7252 61.3424 72.4772 61.6304 73.1492C61.9184 73.8052 62.3184 74.3652 62.8304 74.8292C63.3584 75.2932 63.9744 75.6452 64.6784 75.8852C65.3984 76.1252 66.1904 76.2452 67.0544 76.2452C67.5504 76.2452 68.0064 76.2132 68.4224 76.1492C68.8384 76.0692 69.1904 75.9492 69.4784 75.7892V73.6532H66.4304V70.2932H73.0064V77.7572Z" fill="#030303"/>
<path d="M26.528 102.069C26.336 102.229 25.976 102.445 25.448 102.717C24.936 102.989 24.304 103.229 23.552 103.437C22.8 103.645 21.968 103.741 21.056 103.725C19.664 103.693 18.416 103.445 17.312 102.981C16.224 102.501 15.296 101.853 14.528 101.037C13.776 100.221 13.2 99.2852 12.8 98.2292C12.4 97.1732 12.2 96.0452 12.2 94.8452C12.2 93.5012 12.4 92.2692 12.8 91.1492C13.216 90.0292 13.8 89.0612 14.552 88.2452C15.32 87.4292 16.232 86.7972 17.288 86.3492C18.344 85.9012 19.512 85.6772 20.792 85.6772C21.976 85.6772 23.024 85.8372 23.936 86.1572C24.848 86.4772 25.592 86.8212 26.168 87.1892L24.8 90.4772C24.4 90.1732 23.864 89.8612 23.192 89.5412C22.536 89.2052 21.776 89.0372 20.912 89.0372C20.24 89.0372 19.592 89.1812 18.968 89.4692C18.36 89.7412 17.816 90.1332 17.336 90.6452C16.872 91.1572 16.504 91.7572 16.232 92.4452C15.96 93.1172 15.824 93.8532 15.824 94.6532C15.824 95.5012 15.944 96.2772 16.184 96.9812C16.44 97.6852 16.8 98.2932 17.264 98.8052C17.728 99.3012 18.28 99.6852 18.92 99.9572C19.576 100.229 20.312 100.365 21.128 100.365C22.072 100.365 22.88 100.213 23.552 99.9092C24.224 99.6052 24.736 99.2852 25.088 98.9492L26.528 102.069Z" fill="#030303"/>
<path d="M44.8704 85.8692V103.533H41.3904V96.3572H33.4944V103.533H30.0144V85.8692H33.4944V92.9972H41.3904V85.8692H44.8704Z" fill="#030303"/>
<path d="M47.4286 103.533L55.3966 85.1732H55.5886L63.5566 103.533H59.5246L54.4366 90.6212L56.9566 88.8932L50.8606 103.533H47.4286ZM52.8766 97.1492H58.1806L59.4046 100.077H51.7966L52.8766 97.1492Z" fill="#030303"/>
<path d="M71.4836 85.8692C72.5876 85.8692 73.5716 86.0132 74.4356 86.3012C75.2996 86.5732 76.0196 86.9732 76.5956 87.5012C77.1876 88.0132 77.6356 88.6372 77.9396 89.3732C78.2436 90.0932 78.3956 90.9092 78.3956 91.8212C78.3956 92.5412 78.2836 93.2612 78.0596 93.9812C77.8516 94.7012 77.4996 95.3572 77.0036 95.9492C76.5236 96.5412 75.8836 97.0212 75.0836 97.3892C74.2836 97.7412 73.2916 97.9172 72.1076 97.9172H69.6116V103.533H66.1316V85.8692H71.4836ZM72.0836 94.5572C72.6116 94.5572 73.0516 94.4692 73.4036 94.2932C73.7556 94.1172 74.0276 93.8932 74.2196 93.6212C74.4276 93.3492 74.5716 93.0692 74.6516 92.7812C74.7476 92.4772 74.7956 92.1972 74.7956 91.9412C74.7956 91.7492 74.7636 91.5092 74.6996 91.2212C74.6516 90.9172 74.5396 90.6132 74.3636 90.3092C74.1876 90.0052 73.9156 89.7492 73.5476 89.5412C73.1956 89.3332 72.7156 89.2292 72.1076 89.2292H69.6116V94.5572H72.0836ZM75.3476 96.7172L79.7156 103.533H75.6596L71.1956 96.8132L75.3476 96.7172Z" fill="#030303"/>
<path d="M82.5847 85.8692H86.0647V100.173H94.3687V103.533H82.5847V85.8692Z" fill="#030303"/>
<path d="M97.9597 85.8692H110.008V89.2292H101.44V92.9972H109.024V96.3572H101.44V100.173H110.344V103.533H97.9597V85.8692Z" fill="#030303"/>
<path d="M123.376 90.1412C122.704 89.7732 122.016 89.4692 121.312 89.2292C120.624 88.9892 119.976 88.8692 119.368 88.8692C118.616 88.8692 118.024 89.0212 117.592 89.3252C117.16 89.6292 116.944 90.0852 116.944 90.6932C116.944 91.1092 117.104 91.4852 117.424 91.8212C117.76 92.1412 118.184 92.4292 118.696 92.6852C119.224 92.9412 119.768 93.1732 120.328 93.3812C120.84 93.5732 121.344 93.8052 121.84 94.0772C122.352 94.3332 122.808 94.6612 123.208 95.0612C123.608 95.4452 123.928 95.9332 124.168 96.5252C124.408 97.1012 124.528 97.8132 124.528 98.6612C124.528 99.5572 124.296 100.389 123.832 101.157C123.368 101.925 122.688 102.549 121.792 103.029C120.896 103.493 119.792 103.725 118.48 103.725C117.808 103.725 117.12 103.661 116.416 103.533C115.728 103.389 115.048 103.181 114.376 102.909C113.704 102.621 113.056 102.261 112.432 101.829L113.968 99.1172C114.384 99.4212 114.832 99.6932 115.312 99.9332C115.808 100.157 116.304 100.333 116.8 100.461C117.296 100.589 117.752 100.653 118.168 100.653C118.584 100.653 119 100.597 119.416 100.485C119.848 100.357 120.2 100.149 120.472 99.8612C120.76 99.5732 120.904 99.1732 120.904 98.6612C120.904 98.3092 120.784 97.9892 120.544 97.7012C120.32 97.4132 120.008 97.1492 119.608 96.9092C119.224 96.6692 118.8 96.4612 118.336 96.2852C117.792 96.0772 117.232 95.8372 116.656 95.5652C116.08 95.2932 115.536 94.9652 115.024 94.5812C114.528 94.1812 114.12 93.6932 113.8 93.1172C113.496 92.5252 113.344 91.8052 113.344 90.9572C113.344 89.9332 113.568 89.0452 114.016 88.2932C114.48 87.5412 115.128 86.9492 115.96 86.5172C116.792 86.0692 117.752 85.8212 118.84 85.7732C120.264 85.7732 121.416 85.9412 122.296 86.2772C123.192 86.6132 123.992 87.0132 124.696 87.4772L123.376 90.1412Z" fill="#030303"/>
<path d="M13.28 127.533V109.149H13.304L23.12 123.069L21.632 122.733L31.424 109.149H31.472V127.533H27.992V116.997L28.208 118.797L22.232 127.293H22.184L16.04 118.797L16.64 117.141V127.533H13.28Z" fill="#030303"/>
<path d="M34.0458 127.533L42.0138 109.173H42.2058L50.1738 127.533H46.1418L41.0538 114.621L43.5738 112.893L37.4778 127.533H34.0458ZM39.4938 121.149H44.7978L46.0218 124.077H38.4138L39.4938 121.149Z" fill="#030303"/>
<path d="M58.1007 109.869C59.2048 109.869 60.1888 110.013 61.0527 110.301C61.9167 110.573 62.6367 110.973 63.2127 111.501C63.8047 112.013 64.2527 112.637 64.5567 113.373C64.8607 114.093 65.0127 114.909 65.0127 115.821C65.0127 116.541 64.9007 117.261 64.6768 117.981C64.4688 118.701 64.1168 119.357 63.6208 119.949C63.1408 120.541 62.5008 121.021 61.7008 121.389C60.9008 121.741 59.9088 121.917 58.7248 121.917H56.2288V127.533H52.7487V109.869H58.1007ZM58.7008 118.557C59.2288 118.557 59.6688 118.469 60.0208 118.293C60.3728 118.117 60.6447 117.893 60.8368 117.621C61.0448 117.349 61.1888 117.069 61.2687 116.781C61.3647 116.477 61.4128 116.197 61.4128 115.941C61.4128 115.749 61.3807 115.509 61.3167 115.221C61.2687 114.917 61.1567 114.613 60.9808 114.309C60.8048 114.005 60.5327 113.749 60.1647 113.541C59.8127 113.333 59.3328 113.229 58.7248 113.229H56.2288V118.557H58.7008ZM61.9648 120.717L66.3327 127.533H62.2767L57.8128 120.813L61.9648 120.717Z" fill="#030303"/>
<path d="M72.7299 116.157L72.6339 117.045L73.1619 116.373L78.9219 109.869H83.4339L76.1379 117.789L83.4579 127.533H79.0419L73.5939 119.997L72.7299 120.861V127.533H69.2019V109.869H72.7299V116.157Z" fill="#030303"/>
<path d="M86.1003 109.869H98.1483V113.229H89.5803V116.997H97.1643V120.357H89.5803V124.173H98.4843V127.533H86.1003V109.869Z" fill="#030303"/>
<path d="M100.885 109.869H112.789V113.229H108.493V127.533H105.013V113.229H100.885V109.869Z" fill="#030303"/>
</svg>
