<svg width="162" height="162" viewBox="0 0 162 162" fill="none" xmlns="http://www.w3.org/2000/svg">
<rect x="3" y="3" width="156" height="156" stroke="#161616" stroke-width="6"/>
<path d="M17.776 74.728L17.664 75.764L18.28 74.98L25 67.392H30.264L21.752 76.632L30.292 88H25.14L18.784 79.208L17.776 80.216V88H13.66V67.392H17.776V74.728ZM33.3748 67.392H37.4348V88H33.3748V67.392ZM61.2058 88.84L45.5818 74.728L46.7858 75.4L46.8698 88H42.7538V66.58H42.9218L58.2098 80.636L57.3138 80.244L57.2298 67.392H61.3178V88.84H61.2058ZM83.3408 85.928C83.0982 86.1893 82.7155 86.46 82.1928 86.74C81.6702 87.0013 81.0635 87.244 80.3728 87.468C79.7008 87.692 79.0102 87.8693 78.3008 88C77.5915 88.1493 76.9195 88.224 76.2848 88.224C74.6048 88.224 73.0928 87.9813 71.7488 87.496C70.4048 86.992 69.2568 86.3013 68.3048 85.424C67.3528 84.528 66.6248 83.4733 66.1208 82.26C65.6168 81.0467 65.3648 79.7213 65.3648 78.284C65.3648 76.3987 65.6448 74.7653 66.2048 73.384C66.7835 71.984 67.5582 70.8267 68.5288 69.912C69.5182 68.9787 70.6475 68.288 71.9168 67.84C73.2048 67.392 74.5488 67.168 75.9488 67.168C77.2742 67.168 78.4875 67.3173 79.5888 67.616C80.6902 67.896 81.6235 68.2507 82.3888 68.68L81.0728 72.46C80.7368 72.2733 80.2888 72.0867 79.7288 71.9C79.1688 71.7133 78.5995 71.564 78.0208 71.452C77.4422 71.3213 76.9288 71.256 76.4808 71.256C75.3608 71.256 74.3715 71.396 73.5128 71.676C72.6542 71.956 71.9262 72.376 71.3288 72.936C70.7502 73.496 70.3115 74.196 70.0128 75.036C69.7142 75.8573 69.5648 76.8187 69.5648 77.92C69.5648 78.8907 69.7328 79.768 70.0688 80.552C70.4048 81.3173 70.8715 81.9707 71.4688 82.512C72.0848 83.0533 72.8035 83.464 73.6248 83.744C74.4648 84.024 75.3888 84.164 76.3968 84.164C76.9755 84.164 77.5075 84.1267 77.9928 84.052C78.4782 83.9587 78.8888 83.8187 79.2248 83.632V81.14H75.6688V77.22H83.3408V85.928ZM29.116 114.292C28.892 114.479 28.472 114.731 27.856 115.048C27.2587 115.365 26.5213 115.645 25.644 115.888C24.7667 116.131 23.796 116.243 22.732 116.224C21.108 116.187 19.652 115.897 18.364 115.356C17.0947 114.796 16.012 114.04 15.116 113.088C14.2387 112.136 13.5667 111.044 13.1 109.812C12.6333 108.58 12.4 107.264 12.4 105.864C12.4 104.296 12.6333 102.859 13.1 101.552C13.5853 100.245 14.2667 99.116 15.144 98.164C16.04 97.212 17.104 96.4747 18.336 95.952C19.568 95.4293 20.9307 95.168 22.424 95.168C23.8053 95.168 25.028 95.3547 26.092 95.728C27.156 96.1013 28.024 96.5027 28.696 96.932L27.1 100.768C26.6333 100.413 26.008 100.049 25.224 99.676C24.4587 99.284 23.572 99.088 22.564 99.088C21.78 99.088 21.024 99.256 20.296 99.592C19.5867 99.9093 18.952 100.367 18.392 100.964C17.8507 101.561 17.4213 102.261 17.104 103.064C16.7867 103.848 16.628 104.707 16.628 105.64C16.628 106.629 16.768 107.535 17.048 108.356C17.3467 109.177 17.7667 109.887 18.308 110.484C18.8493 111.063 19.4933 111.511 20.24 111.828C21.0053 112.145 21.864 112.304 22.816 112.304C23.9173 112.304 24.86 112.127 25.644 111.772C26.428 111.417 27.0253 111.044 27.436 110.652L29.116 114.292ZM50.5154 95.392V116H46.4554V107.628H37.2434V116H33.1834V95.392H37.2434V103.708H46.4554V95.392H50.5154ZM53.5001 116L62.7961 94.58H63.0201L72.3161 116H67.6121L61.6761 100.936L64.6161 98.92L57.5041 116H53.5001ZM59.8561 108.552H66.0441L67.4721 111.968H58.5961L59.8561 108.552ZM81.5642 95.392C82.8522 95.392 84.0002 95.56 85.0082 95.896C86.0162 96.2133 86.8562 96.68 87.5282 97.296C88.2188 97.8933 88.7415 98.6213 89.0962 99.48C89.4508 100.32 89.6282 101.272 89.6282 102.336C89.6282 103.176 89.4975 104.016 89.2362 104.856C88.9935 105.696 88.5828 106.461 88.0042 107.152C87.4442 107.843 86.6975 108.403 85.7642 108.832C84.8308 109.243 83.6735 109.448 82.2922 109.448H79.3802V116H75.3202V95.392H81.5642ZM82.2642 105.528C82.8802 105.528 83.3935 105.425 83.8042 105.22C84.2148 105.015 84.5322 104.753 84.7562 104.436C84.9988 104.119 85.1668 103.792 85.2602 103.456C85.3722 103.101 85.4282 102.775 85.4282 102.476C85.4282 102.252 85.3908 101.972 85.3162 101.636C85.2602 101.281 85.1295 100.927 84.9242 100.572C84.7188 100.217 84.4015 99.9187 83.9722 99.676C83.5615 99.4333 83.0015 99.312 82.2922 99.312H79.3802V105.528H82.2642ZM86.0722 108.048L91.1682 116H86.4362L81.2282 108.16L86.0722 108.048ZM94.5155 95.392H98.5755V112.08H108.263V116H94.5155V95.392ZM112.453 95.392H126.509V99.312H116.513V103.708H125.361V107.628H116.513V112.08H126.901V116H112.453V95.392ZM142.105 100.376C141.321 99.9467 140.519 99.592 139.697 99.312C138.895 99.032 138.139 98.892 137.429 98.892C136.552 98.892 135.861 99.0693 135.357 99.424C134.853 99.7787 134.601 100.311 134.601 101.02C134.601 101.505 134.788 101.944 135.161 102.336C135.553 102.709 136.048 103.045 136.645 103.344C137.261 103.643 137.896 103.913 138.549 104.156C139.147 104.38 139.735 104.651 140.313 104.968C140.911 105.267 141.443 105.649 141.909 106.116C142.376 106.564 142.749 107.133 143.029 107.824C143.309 108.496 143.449 109.327 143.449 110.316C143.449 111.361 143.179 112.332 142.637 113.228C142.096 114.124 141.303 114.852 140.257 115.412C139.212 115.953 137.924 116.224 136.393 116.224C135.609 116.224 134.807 116.149 133.985 116C133.183 115.832 132.389 115.589 131.605 115.272C130.821 114.936 130.065 114.516 129.337 114.012L131.129 110.848C131.615 111.203 132.137 111.52 132.697 111.8C133.276 112.061 133.855 112.267 134.433 112.416C135.012 112.565 135.544 112.64 136.029 112.64C136.515 112.64 137 112.575 137.485 112.444C137.989 112.295 138.4 112.052 138.717 111.716C139.053 111.38 139.221 110.913 139.221 110.316C139.221 109.905 139.081 109.532 138.801 109.196C138.54 108.86 138.176 108.552 137.709 108.272C137.261 107.992 136.767 107.749 136.225 107.544C135.591 107.301 134.937 107.021 134.265 106.704C133.593 106.387 132.959 106.004 132.361 105.556C131.783 105.089 131.307 104.52 130.933 103.848C130.579 103.157 130.401 102.317 130.401 101.328C130.401 100.133 130.663 99.0973 131.185 98.22C131.727 97.3427 132.483 96.652 133.453 96.148C134.424 95.6253 135.544 95.336 136.813 95.28C138.475 95.28 139.819 95.476 140.845 95.868C141.891 96.26 142.824 96.7267 143.645 97.268L142.105 100.376ZM13.66 144V122.552H13.688L25.14 138.792L23.404 138.4L34.828 122.552H34.884V144H30.824V131.708L31.076 133.808L24.104 143.72H24.048L16.88 133.808L17.58 131.876V144H13.66ZM37.8868 144L47.1828 122.58H47.4068L56.7028 144H51.9988L46.0628 128.936L49.0028 126.92L41.8908 144H37.8868ZM44.2428 136.552H50.4308L51.8588 139.968H42.9828L44.2428 136.552ZM65.9509 123.392C67.2389 123.392 68.3869 123.56 69.3949 123.896C70.4029 124.213 71.2429 124.68 71.9149 125.296C72.6055 125.893 73.1282 126.621 73.4829 127.48C73.8375 128.32 74.0149 129.272 74.0149 130.336C74.0149 131.176 73.8842 132.016 73.6229 132.856C73.3802 133.696 72.9695 134.461 72.3909 135.152C71.8309 135.843 71.0842 136.403 70.1509 136.832C69.2175 137.243 68.0602 137.448 66.6789 137.448H63.7669V144H59.7069V123.392H65.9509ZM66.6509 133.528C67.2669 133.528 67.7802 133.425 68.1909 133.22C68.6015 133.015 68.9189 132.753 69.1429 132.436C69.3855 132.119 69.5535 131.792 69.6469 131.456C69.7589 131.101 69.8149 130.775 69.8149 130.476C69.8149 130.252 69.7775 129.972 69.7029 129.636C69.6469 129.281 69.5162 128.927 69.3109 128.572C69.1055 128.217 68.7882 127.919 68.3589 127.676C67.9482 127.433 67.3882 127.312 66.6789 127.312H63.7669V133.528H66.6509ZM70.4589 136.048L75.5549 144H70.8229L65.6149 136.16L70.4589 136.048ZM83.0182 130.728L82.9062 131.764L83.5222 130.98L90.2422 123.392H95.5062L86.9942 132.632L95.5342 144H90.3822L84.0262 135.208L83.0182 136.216V144H78.9022V123.392H83.0182V130.728ZM98.617 123.392H112.673V127.312H102.677V131.708H111.525V135.628H102.677V140.08H113.065V144H98.617V123.392ZM115.865 123.392H129.753V127.312H124.741V144H120.681V127.312H115.865V123.392Z" fill="#161616"/>
</svg>
