<svg width="188" height="188" viewBox="0 0 188 188" fill="none" xmlns="http://www.w3.org/2000/svg">
<rect x="30.7295" y="3.64042" width="156" height="156" transform="rotate(10 30.7295 3.64042)" stroke="white" stroke-width="6"/>
<path d="M30.776 87.728L30.664 88.764L31.28 87.98L38 80.392H43.264L34.752 89.632L43.292 101H38.14L31.784 92.208L30.776 93.216V101H26.66V80.392H30.776V87.728ZM46.3748 80.392H50.4348V101H46.3748V80.392ZM74.2058 101.84L58.5818 87.728L59.7858 88.4L59.8698 101H55.7538V79.58H55.9218L71.2098 93.636L70.3138 93.244L70.2298 80.392H74.3178V101.84H74.2058ZM96.3408 98.928C96.0982 99.1893 95.7155 99.46 95.1928 99.74C94.6702 100.001 94.0635 100.244 93.3728 100.468C92.7008 100.692 92.0102 100.869 91.3008 101C90.5915 101.149 89.9195 101.224 89.2848 101.224C87.6048 101.224 86.0928 100.981 84.7488 100.496C83.4048 99.992 82.2568 99.3013 81.3048 98.424C80.3528 97.528 79.6248 96.4733 79.1208 95.26C78.6168 94.0466 78.3648 92.7213 78.3648 91.284C78.3648 89.3986 78.6448 87.7653 79.2048 86.384C79.7835 84.984 80.5582 83.8266 81.5288 82.912C82.5182 81.9786 83.6475 81.288 84.9168 80.84C86.2048 80.392 87.5488 80.168 88.9488 80.168C90.2742 80.168 91.4875 80.3173 92.5888 80.616C93.6902 80.896 94.6235 81.2506 95.3888 81.68L94.0728 85.46C93.7368 85.2733 93.2888 85.0866 92.7288 84.9C92.1688 84.7133 91.5995 84.564 91.0208 84.452C90.4422 84.3213 89.9288 84.256 89.4808 84.256C88.3608 84.256 87.3715 84.396 86.5128 84.676C85.6542 84.956 84.9262 85.376 84.3288 85.936C83.7502 86.496 83.3115 87.196 83.0128 88.036C82.7142 88.8573 82.5648 89.8186 82.5648 90.92C82.5648 91.8906 82.7328 92.768 83.0688 93.552C83.4048 94.3173 83.8715 94.9706 84.4688 95.512C85.0848 96.0533 85.8035 96.464 86.6248 96.744C87.4648 97.024 88.3888 97.164 89.3968 97.164C89.9755 97.164 90.5075 97.1266 90.9928 97.052C91.4782 96.9586 91.8888 96.8186 92.2248 96.632V94.14H88.6688V90.22H96.3408V98.928ZM42.116 127.292C41.892 127.479 41.472 127.731 40.856 128.048C40.2587 128.365 39.5213 128.645 38.644 128.888C37.7667 129.131 36.796 129.243 35.732 129.224C34.108 129.187 32.652 128.897 31.364 128.356C30.0947 127.796 29.012 127.04 28.116 126.088C27.2387 125.136 26.5667 124.044 26.1 122.812C25.6333 121.58 25.4 120.264 25.4 118.864C25.4 117.296 25.6333 115.859 26.1 114.552C26.5853 113.245 27.2667 112.116 28.144 111.164C29.04 110.212 30.104 109.475 31.336 108.952C32.568 108.429 33.9307 108.168 35.424 108.168C36.8053 108.168 38.028 108.355 39.092 108.728C40.156 109.101 41.024 109.503 41.696 109.932L40.1 113.768C39.6333 113.413 39.008 113.049 38.224 112.676C37.4587 112.284 36.572 112.088 35.564 112.088C34.78 112.088 34.024 112.256 33.296 112.592C32.5867 112.909 31.952 113.367 31.392 113.964C30.8507 114.561 30.4213 115.261 30.104 116.064C29.7867 116.848 29.628 117.707 29.628 118.64C29.628 119.629 29.768 120.535 30.048 121.356C30.3467 122.177 30.7667 122.887 31.308 123.484C31.8493 124.063 32.4933 124.511 33.24 124.828C34.0053 125.145 34.864 125.304 35.816 125.304C36.9173 125.304 37.86 125.127 38.644 124.772C39.428 124.417 40.0253 124.044 40.436 123.652L42.116 127.292ZM63.5154 108.392V129H59.4554V120.628H50.2434V129H46.1834V108.392H50.2434V116.708H59.4554V108.392H63.5154ZM66.5001 129L75.7961 107.58H76.0201L85.3161 129H80.6121L74.6761 113.936L77.6161 111.92L70.5041 129H66.5001ZM72.8561 121.552H79.0441L80.4721 124.968H71.5961L72.8561 121.552ZM94.5642 108.392C95.8522 108.392 97.0002 108.56 98.0082 108.896C99.0162 109.213 99.8562 109.68 100.528 110.296C101.219 110.893 101.741 111.621 102.096 112.48C102.451 113.32 102.628 114.272 102.628 115.336C102.628 116.176 102.497 117.016 102.236 117.856C101.993 118.696 101.583 119.461 101.004 120.152C100.444 120.843 99.6975 121.403 98.7642 121.832C97.8308 122.243 96.6735 122.448 95.2922 122.448H92.3802V129H88.3202V108.392H94.5642ZM95.2642 118.528C95.8802 118.528 96.3935 118.425 96.8042 118.22C97.2148 118.015 97.5322 117.753 97.7562 117.436C97.9988 117.119 98.1668 116.792 98.2602 116.456C98.3722 116.101 98.4282 115.775 98.4282 115.476C98.4282 115.252 98.3908 114.972 98.3162 114.636C98.2602 114.281 98.1295 113.927 97.9242 113.572C97.7188 113.217 97.4015 112.919 96.9722 112.676C96.5615 112.433 96.0015 112.312 95.2922 112.312H92.3802V118.528H95.2642ZM99.0722 121.048L104.168 129H99.4362L94.2282 121.16L99.0722 121.048ZM107.515 108.392H111.575V125.08H121.263V129H107.515V108.392ZM125.453 108.392H139.509V112.312H129.513V116.708H138.361V120.628H129.513V125.08H139.901V129H125.453V108.392ZM155.105 113.376C154.321 112.947 153.519 112.592 152.697 112.312C151.895 112.032 151.139 111.892 150.429 111.892C149.552 111.892 148.861 112.069 148.357 112.424C147.853 112.779 147.601 113.311 147.601 114.02C147.601 114.505 147.788 114.944 148.161 115.336C148.553 115.709 149.048 116.045 149.645 116.344C150.261 116.643 150.896 116.913 151.549 117.156C152.147 117.38 152.735 117.651 153.313 117.968C153.911 118.267 154.443 118.649 154.909 119.116C155.376 119.564 155.749 120.133 156.029 120.824C156.309 121.496 156.449 122.327 156.449 123.316C156.449 124.361 156.179 125.332 155.637 126.228C155.096 127.124 154.303 127.852 153.257 128.412C152.212 128.953 150.924 129.224 149.393 129.224C148.609 129.224 147.807 129.149 146.985 129C146.183 128.832 145.389 128.589 144.605 128.272C143.821 127.936 143.065 127.516 142.337 127.012L144.129 123.848C144.615 124.203 145.137 124.52 145.697 124.8C146.276 125.061 146.855 125.267 147.433 125.416C148.012 125.565 148.544 125.64 149.029 125.64C149.515 125.64 150 125.575 150.485 125.444C150.989 125.295 151.4 125.052 151.717 124.716C152.053 124.38 152.221 123.913 152.221 123.316C152.221 122.905 152.081 122.532 151.801 122.196C151.54 121.86 151.176 121.552 150.709 121.272C150.261 120.992 149.767 120.749 149.225 120.544C148.591 120.301 147.937 120.021 147.265 119.704C146.593 119.387 145.959 119.004 145.361 118.556C144.783 118.089 144.307 117.52 143.933 116.848C143.579 116.157 143.401 115.317 143.401 114.328C143.401 113.133 143.663 112.097 144.185 111.22C144.727 110.343 145.483 109.652 146.453 109.148C147.424 108.625 148.544 108.336 149.813 108.28C151.475 108.28 152.819 108.476 153.845 108.868C154.891 109.26 155.824 109.727 156.645 110.268L155.105 113.376ZM26.66 157V135.552H26.688L38.14 151.792L36.404 151.4L47.828 135.552H47.884V157H43.824V144.708L44.076 146.808L37.104 156.72H37.048L29.88 146.808L30.58 144.876V157H26.66ZM50.8868 157L60.1828 135.58H60.4068L69.7028 157H64.9988L59.0628 141.936L62.0028 139.92L54.8908 157H50.8868ZM57.2428 149.552H63.4308L64.8588 152.968H55.9828L57.2428 149.552ZM78.9509 136.392C80.2389 136.392 81.3869 136.56 82.3949 136.896C83.4029 137.213 84.2429 137.68 84.9149 138.296C85.6055 138.893 86.1282 139.621 86.4829 140.48C86.8375 141.32 87.0149 142.272 87.0149 143.336C87.0149 144.176 86.8842 145.016 86.6229 145.856C86.3802 146.696 85.9695 147.461 85.3909 148.152C84.8309 148.843 84.0842 149.403 83.1509 149.832C82.2175 150.243 81.0602 150.448 79.6789 150.448H76.7669V157H72.7069V136.392H78.9509ZM79.6509 146.528C80.2669 146.528 80.7802 146.425 81.1909 146.22C81.6015 146.015 81.9189 145.753 82.1429 145.436C82.3855 145.119 82.5535 144.792 82.6469 144.456C82.7589 144.101 82.8149 143.775 82.8149 143.476C82.8149 143.252 82.7775 142.972 82.7029 142.636C82.6469 142.281 82.5162 141.927 82.3109 141.572C82.1055 141.217 81.7882 140.919 81.3589 140.676C80.9482 140.433 80.3882 140.312 79.6789 140.312H76.7669V146.528H79.6509ZM83.4589 149.048L88.5549 157H83.8229L78.6149 149.16L83.4589 149.048ZM96.0182 143.728L95.9062 144.764L96.5222 143.98L103.242 136.392H108.506L99.9942 145.632L108.534 157H103.382L97.0262 148.208L96.0182 149.216V157H91.9022V136.392H96.0182V143.728ZM111.617 136.392H125.673V140.312H115.677V144.708H124.525V148.628H115.677V153.08H126.065V157H111.617V136.392ZM128.865 136.392H142.753V140.312H137.741V157H133.681V140.312H128.865V136.392Z" fill="white"/>
</svg>
