<svg width="162" height="162" viewBox="0 0 162 162" fill="none" xmlns="http://www.w3.org/2000/svg">
<rect x="3" y="3" width="156" height="156" stroke="white" stroke-width="6"/>
<path d="M18.018 73.254L17.902 74.327L18.54 73.515L25.5 65.656H30.952L22.136 75.226L30.981 87H25.645L19.062 77.894L18.018 78.938V87H13.755V65.656H18.018V73.254ZM34.1739 65.656H38.3789V87H34.1739V65.656ZM62.9988 87.87L46.8168 73.254L48.0638 73.95L48.1508 87H43.8878V64.815H44.0618L59.8958 79.373L58.9678 78.967L58.8808 65.656H63.1148V87.87H62.9988ZM85.9244 84.854C85.6731 85.1247 85.2768 85.405 84.7354 85.695C84.1941 85.9657 83.5658 86.217 82.8504 86.449C82.1544 86.681 81.4391 86.8647 80.7044 87C79.9698 87.1547 79.2738 87.232 78.6164 87.232C76.8764 87.232 75.3104 86.9807 73.9184 86.478C72.5264 85.956 71.3374 85.2407 70.3514 84.332C69.3654 83.404 68.6114 82.3117 68.0894 81.055C67.5674 79.7983 67.3064 78.4257 67.3064 76.937C67.3064 74.9843 67.5964 73.2927 68.1764 71.862C68.7758 70.412 69.5781 69.2133 70.5834 68.266C71.6081 67.2993 72.7778 66.584 74.0924 66.12C75.4264 65.656 76.8184 65.424 78.2684 65.424C79.6411 65.424 80.8978 65.5787 82.0384 65.888C83.1791 66.178 84.1458 66.5453 84.9384 66.99L83.5754 70.905C83.2274 70.7117 82.7634 70.5183 82.1834 70.325C81.6034 70.1317 81.0138 69.977 80.4144 69.861C79.8151 69.7257 79.2834 69.658 78.8194 69.658C77.6594 69.658 76.6348 69.803 75.7454 70.093C74.8561 70.383 74.1021 70.818 73.4834 71.398C72.8841 71.978 72.4298 72.703 72.1204 73.573C71.8111 74.4237 71.6564 75.4193 71.6564 76.56C71.6564 77.5653 71.8304 78.474 72.1784 79.286C72.5264 80.0787 73.0098 80.7553 73.6284 81.316C74.2664 81.8767 75.0108 82.302 75.8614 82.592C76.7314 82.882 77.6884 83.027 78.7324 83.027C79.3318 83.027 79.8828 82.9883 80.3854 82.911C80.8881 82.8143 81.3134 82.6693 81.6614 82.476V79.895H77.9784V75.835H85.9244V84.854ZM29.763 114.231C29.531 114.424 29.096 114.685 28.458 115.014C27.8393 115.343 27.0757 115.633 26.167 115.884C25.2583 116.135 24.253 116.251 23.151 116.232C21.469 116.193 19.961 115.894 18.627 115.333C17.3123 114.753 16.191 113.97 15.263 112.984C14.3543 111.998 13.6583 110.867 13.175 109.591C12.6917 108.315 12.45 106.952 12.45 105.502C12.45 103.878 12.6917 102.389 13.175 101.036C13.6777 99.6827 14.3833 98.513 15.292 97.527C16.22 96.541 17.322 95.7773 18.598 95.236C19.874 94.6947 21.2853 94.424 22.832 94.424C24.2627 94.424 25.529 94.6173 26.631 95.004C27.733 95.3907 28.632 95.8063 29.328 96.251L27.675 100.224C27.1917 99.8567 26.544 99.4797 25.732 99.093C24.9393 98.687 24.021 98.484 22.977 98.484C22.165 98.484 21.382 98.658 20.628 99.006C19.8933 99.3347 19.236 99.8083 18.656 100.427C18.0953 101.046 17.6507 101.771 17.322 102.602C16.9933 103.414 16.829 104.303 16.829 105.27C16.829 106.295 16.974 107.232 17.264 108.083C17.5733 108.934 18.0083 109.668 18.569 110.287C19.1297 110.886 19.7967 111.35 20.57 111.679C21.3627 112.008 22.252 112.172 23.238 112.172C24.3787 112.172 25.355 111.988 26.167 111.621C26.979 111.254 27.5977 110.867 28.023 110.461L29.763 114.231ZM51.9267 94.656V116H47.7217V107.329H38.1807V116H33.9757V94.656H38.1807V103.269H47.7217V94.656H51.9267ZM55.0179 116L64.6459 93.815H64.8779L74.5059 116H69.6339L63.4859 100.398L66.5309 98.31L59.1649 116H55.0179ZM61.6009 108.286H68.0099L69.4889 111.824H60.2959L61.6009 108.286ZM84.0843 94.656C85.4183 94.656 86.6073 94.83 87.6513 95.178C88.6953 95.5067 89.5653 95.99 90.2613 96.628C90.9766 97.2467 91.518 98.0007 91.8853 98.89C92.2526 99.76 92.4363 100.746 92.4363 101.848C92.4363 102.718 92.301 103.588 92.0303 104.458C91.779 105.328 91.3536 106.121 90.7543 106.836C90.1743 107.551 89.401 108.131 88.4343 108.576C87.4676 109.001 86.269 109.214 84.8383 109.214H81.8223V116H77.6173V94.656H84.0843ZM84.8093 105.154C85.4473 105.154 85.979 105.048 86.4043 104.835C86.8296 104.622 87.1583 104.352 87.3903 104.023C87.6416 103.694 87.8156 103.356 87.9123 103.008C88.0283 102.641 88.0863 102.302 88.0863 101.993C88.0863 101.761 88.0476 101.471 87.9703 101.123C87.9123 100.756 87.777 100.388 87.5643 100.021C87.3516 99.6537 87.023 99.3443 86.5783 99.093C86.153 98.8417 85.573 98.716 84.8383 98.716H81.8223V105.154H84.8093ZM88.7533 107.764L94.0313 116H89.1303L83.7363 107.88L88.7533 107.764ZM97.4982 94.656H101.703V111.94H111.737V116H97.4982V94.656ZM116.076 94.656H130.634V98.716H120.281V103.269H129.445V107.329H120.281V111.94H131.04V116H116.076V94.656ZM146.788 99.818C145.976 99.3733 145.144 99.006 144.294 98.716C143.462 98.426 142.679 98.281 141.945 98.281C141.036 98.281 140.321 98.4647 139.799 98.832C139.277 99.1993 139.016 99.7503 139.016 100.485C139.016 100.988 139.209 101.442 139.596 101.848C140.002 102.235 140.514 102.583 141.133 102.892C141.771 103.201 142.428 103.482 143.105 103.733C143.723 103.965 144.332 104.245 144.932 104.574C145.55 104.883 146.101 105.28 146.585 105.763C147.068 106.227 147.455 106.817 147.745 107.532C148.035 108.228 148.18 109.088 148.18 110.113C148.18 111.196 147.899 112.201 147.339 113.129C146.778 114.057 145.956 114.811 144.874 115.391C143.791 115.952 142.457 116.232 140.872 116.232C140.06 116.232 139.228 116.155 138.378 116C137.546 115.826 136.725 115.575 135.913 115.246C135.101 114.898 134.318 114.463 133.564 113.941L135.42 110.664C135.922 111.031 136.464 111.36 137.044 111.65C137.643 111.921 138.242 112.133 138.842 112.288C139.441 112.443 139.992 112.52 140.495 112.52C140.997 112.52 141.5 112.452 142.003 112.317C142.525 112.162 142.95 111.911 143.279 111.563C143.627 111.215 143.801 110.732 143.801 110.113C143.801 109.688 143.656 109.301 143.366 108.953C143.095 108.605 142.718 108.286 142.235 107.996C141.771 107.706 141.258 107.455 140.698 107.242C140.04 106.991 139.364 106.701 138.668 106.372C137.972 106.043 137.314 105.647 136.696 105.183C136.096 104.7 135.603 104.11 135.217 103.414C134.849 102.699 134.666 101.829 134.666 100.804C134.666 99.5667 134.936 98.4937 135.478 97.585C136.038 96.6763 136.821 95.961 137.827 95.439C138.832 94.8977 139.992 94.598 141.307 94.54C143.027 94.54 144.419 94.743 145.483 95.149C146.565 95.555 147.532 96.0383 148.383 96.599L146.788 99.818ZM13.755 145V122.786H13.784L25.645 139.606L23.847 139.2L35.679 122.786H35.737V145H31.532V132.269L31.793 134.444L24.572 144.71H24.514L17.09 134.444L17.815 132.443V145H13.755ZM38.847 145L48.475 122.815H48.707L58.335 145H53.463L47.315 129.398L50.36 127.31L42.994 145H38.847ZM45.43 137.286H51.839L53.318 140.824H44.125L45.43 137.286ZM67.9134 123.656C69.2474 123.656 70.4364 123.83 71.4804 124.178C72.5244 124.507 73.3944 124.99 74.0904 125.628C74.8057 126.247 75.3471 127.001 75.7144 127.89C76.0817 128.76 76.2654 129.746 76.2654 130.848C76.2654 131.718 76.1301 132.588 75.8594 133.458C75.6081 134.328 75.1827 135.121 74.5834 135.836C74.0034 136.551 73.2301 137.131 72.2634 137.576C71.2967 138.001 70.0981 138.214 68.6674 138.214H65.6514V145H61.4464V123.656H67.9134ZM68.6384 134.154C69.2764 134.154 69.8081 134.048 70.2334 133.835C70.6587 133.622 70.9874 133.352 71.2194 133.023C71.4707 132.694 71.6447 132.356 71.7414 132.008C71.8574 131.641 71.9154 131.302 71.9154 130.993C71.9154 130.761 71.8767 130.471 71.7994 130.123C71.7414 129.756 71.6061 129.388 71.3934 129.021C71.1807 128.654 70.8521 128.344 70.4074 128.093C69.9821 127.842 69.4021 127.716 68.6674 127.716H65.6514V134.154H68.6384ZM72.5824 136.764L77.8604 145H72.9594L67.5654 136.88L72.5824 136.764ZM85.5903 131.254L85.4743 132.327L86.1123 131.515L93.0723 123.656H98.5243L89.7083 133.226L98.5533 145H93.2173L86.6343 135.894L85.5903 136.938V145H81.3273V123.656H85.5903V131.254ZM101.746 123.656H116.304V127.716H105.951V132.269H115.115V136.329H105.951V140.94H116.71V145H101.746V123.656ZM119.611 123.656H133.995V127.716H128.804V145H124.599V127.716H119.611V123.656Z" fill="white"/>
</svg>
