<svg width="188" height="188" viewBox="0 0 188 188" fill="none" xmlns="http://www.w3.org/2000/svg">
<rect x="30.6138" y="3.52465" width="156" height="156" transform="rotate(10 30.6138 3.52465)" stroke="white" stroke-width="6"/>
<path d="M30.9022 86.1382L30.7862 87.2112L31.4242 86.3992L38.3842 78.5402H43.8362L35.0202 88.1102L43.8652 99.8842H38.5292L31.9462 90.7782L30.9022 91.8222V99.8842H26.6392V78.5402H30.9022V86.1382ZM47.0582 78.5402H51.2632V99.8842H47.0582V78.5402ZM75.883 100.754L59.701 86.1382L60.948 86.8342L61.035 99.8842H56.772V77.6992H56.946L72.78 92.2572L71.852 91.8512L71.765 78.5402H75.999V100.754H75.883ZM98.8087 97.7382C98.5573 98.0089 98.161 98.2892 97.6197 98.5792C97.0783 98.8499 96.45 99.1012 95.7347 99.3332C95.0387 99.5652 94.3233 99.7489 93.5887 99.8842C92.854 100.039 92.158 100.116 91.5007 100.116C89.7607 100.116 88.1947 99.8649 86.8027 99.3622C85.4107 98.8402 84.2217 98.1249 83.2357 97.2162C82.2497 96.2882 81.4957 95.1959 80.9737 93.9392C80.4517 92.6825 80.1907 91.3099 80.1907 89.8212C80.1907 87.8685 80.4807 86.1769 81.0607 84.7462C81.66 83.2962 82.4623 82.0975 83.4677 81.1502C84.4923 80.1835 85.662 79.4682 86.9767 79.0042C88.3107 78.5402 89.7027 78.3082 91.1527 78.3082C92.5253 78.3082 93.782 78.4629 94.9227 78.7722C96.0633 79.0622 97.03 79.4295 97.8227 79.8742L96.4597 83.7892C96.1117 83.5959 95.6477 83.4025 95.0677 83.2092C94.4877 83.0159 93.898 82.8612 93.2987 82.7452C92.6993 82.6099 92.1677 82.5422 91.7037 82.5422C90.5437 82.5422 89.519 82.6872 88.6297 82.9772C87.7403 83.2672 86.9863 83.7022 86.3677 84.2822C85.7683 84.8622 85.314 85.5872 85.0047 86.4572C84.6953 87.3079 84.5407 88.3035 84.5407 89.4442C84.5407 90.4495 84.7147 91.3582 85.0627 92.1702C85.4107 92.9629 85.894 93.6395 86.5127 94.2002C87.1507 94.7609 87.895 95.1862 88.7457 95.4762C89.6157 95.7662 90.5727 95.9112 91.6167 95.9112C92.216 95.9112 92.767 95.8725 93.2697 95.7952C93.7723 95.6985 94.1977 95.5535 94.5457 95.3602V92.7792H90.8627V88.7192H98.8087V97.7382ZM42.6472 127.115C42.4152 127.309 41.9802 127.57 41.3422 127.898C40.7236 128.227 39.9599 128.517 39.0512 128.768C38.1425 129.02 37.1372 129.136 36.0352 129.116C34.3532 129.078 32.8452 128.778 31.5112 128.217C30.1965 127.637 29.0752 126.854 28.1472 125.868C27.2385 124.882 26.5425 123.751 26.0592 122.475C25.5759 121.199 25.3342 119.836 25.3342 118.386C25.3342 116.762 25.5759 115.274 26.0592 113.92C26.5619 112.567 27.2675 111.397 28.1762 110.411C29.1042 109.425 30.2062 108.662 31.4822 108.12C32.7582 107.579 34.1696 107.308 35.7162 107.308C37.1469 107.308 38.4132 107.502 39.5152 107.888C40.6172 108.275 41.5162 108.691 42.2122 109.135L40.5592 113.108C40.0759 112.741 39.4282 112.364 38.6162 111.977C37.8235 111.571 36.9052 111.368 35.8612 111.368C35.0492 111.368 34.2662 111.542 33.5122 111.89C32.7775 112.219 32.1202 112.693 31.5402 113.311C30.9795 113.93 30.5349 114.655 30.2062 115.486C29.8775 116.298 29.7132 117.188 29.7132 118.154C29.7132 119.179 29.8582 120.117 30.1482 120.967C30.4575 121.818 30.8925 122.553 31.4532 123.171C32.0139 123.771 32.6809 124.235 33.4542 124.563C34.2469 124.892 35.1362 125.056 36.1222 125.056C37.2629 125.056 38.2392 124.873 39.0512 124.505C39.8632 124.138 40.4819 123.751 40.9072 123.345L42.6472 127.115ZM64.8109 107.54V128.884H60.6059V120.213H51.0649V128.884H46.8599V107.54H51.0649V116.153H60.6059V107.54H64.8109ZM67.9021 128.884L77.5301 106.699H77.7621L87.3901 128.884H82.5181L76.3701 113.282L79.4151 111.194L72.0491 128.884H67.9021ZM74.4851 121.17H80.8941L82.3731 124.708H73.1801L74.4851 121.17ZM96.9685 107.54C98.3025 107.54 99.4915 107.714 100.536 108.062C101.58 108.391 102.45 108.874 103.146 109.512C103.861 110.131 104.402 110.885 104.77 111.774C105.137 112.644 105.321 113.63 105.321 114.732C105.321 115.602 105.185 116.472 104.915 117.342C104.663 118.212 104.238 119.005 103.639 119.72C103.059 120.436 102.285 121.016 101.319 121.46C100.352 121.886 99.1532 122.098 97.7225 122.098H94.7065V128.884H90.5015V107.54H96.9685ZM97.6935 118.038C98.3315 118.038 98.8632 117.932 99.2885 117.719C99.7139 117.507 100.043 117.236 100.275 116.907C100.526 116.579 100.7 116.24 100.797 115.892C100.913 115.525 100.971 115.187 100.971 114.877C100.971 114.645 100.932 114.355 100.855 114.007C100.797 113.64 100.661 113.273 100.449 112.905C100.236 112.538 99.9072 112.229 99.4625 111.977C99.0372 111.726 98.4572 111.6 97.7225 111.6H94.7065V118.038H97.6935ZM101.638 120.648L106.916 128.884H102.015L96.6205 120.764L101.638 120.648ZM110.382 107.54H114.587V124.824H124.621V128.884H110.382V107.54ZM128.961 107.54H143.519V111.6H133.166V116.153H142.33V120.213H133.166V124.824H143.925V128.884H128.961V107.54ZM159.672 112.702C158.86 112.258 158.029 111.89 157.178 111.6C156.347 111.31 155.564 111.165 154.829 111.165C153.92 111.165 153.205 111.349 152.683 111.716C152.161 112.084 151.9 112.635 151.9 113.369C151.9 113.872 152.093 114.326 152.48 114.732C152.886 115.119 153.398 115.467 154.017 115.776C154.655 116.086 155.312 116.366 155.989 116.617C156.608 116.849 157.217 117.13 157.816 117.458C158.435 117.768 158.986 118.164 159.469 118.647C159.952 119.111 160.339 119.701 160.629 120.416C160.919 121.112 161.064 121.973 161.064 122.997C161.064 124.08 160.784 125.085 160.223 126.013C159.662 126.941 158.841 127.695 157.758 128.275C156.675 128.836 155.341 129.116 153.756 129.116C152.944 129.116 152.113 129.039 151.262 128.884C150.431 128.71 149.609 128.459 148.797 128.13C147.985 127.782 147.202 127.347 146.448 126.825L148.304 123.548C148.807 123.916 149.348 124.244 149.928 124.534C150.527 124.805 151.127 125.018 151.726 125.172C152.325 125.327 152.876 125.404 153.379 125.404C153.882 125.404 154.384 125.337 154.887 125.201C155.409 125.047 155.834 124.795 156.163 124.447C156.511 124.099 156.685 123.616 156.685 122.997C156.685 122.572 156.54 122.185 156.25 121.837C155.979 121.489 155.602 121.17 155.119 120.88C154.655 120.59 154.143 120.339 153.582 120.126C152.925 119.875 152.248 119.585 151.552 119.256C150.856 118.928 150.199 118.531 149.58 118.067C148.981 117.584 148.488 116.994 148.101 116.298C147.734 115.583 147.55 114.713 147.55 113.688C147.55 112.451 147.821 111.378 148.362 110.469C148.923 109.561 149.706 108.845 150.711 108.323C151.716 107.782 152.876 107.482 154.191 107.424C155.912 107.424 157.304 107.627 158.367 108.033C159.45 108.439 160.416 108.923 161.267 109.483L159.672 112.702ZM26.6392 157.884V135.67H26.6682L38.5292 152.49L36.7312 152.084L48.5632 135.67H48.6212V157.884H44.4162V145.153L44.6772 147.328L37.4562 157.594H37.3982L29.9742 147.328L30.6992 145.327V157.884H26.6392ZM51.7312 157.884L61.3592 135.699H61.5912L71.2192 157.884H66.3472L60.1992 142.282L63.2442 140.194L55.8782 157.884H51.7312ZM58.3142 150.17H64.7232L66.2022 153.708H57.0092L58.3142 150.17ZM80.7976 136.54C82.1316 136.54 83.3206 136.714 84.3646 137.062C85.4086 137.391 86.2786 137.874 86.9746 138.512C87.69 139.131 88.2313 139.885 88.5986 140.774C88.966 141.644 89.1496 142.63 89.1496 143.732C89.1496 144.602 89.0143 145.472 88.7436 146.342C88.4923 147.212 88.067 148.005 87.4676 148.72C86.8876 149.436 86.1143 150.016 85.1476 150.46C84.181 150.886 82.9823 151.098 81.5516 151.098H78.5356V157.884H74.3306V136.54H80.7976ZM81.5226 147.038C82.1606 147.038 82.6923 146.932 83.1176 146.719C83.543 146.507 83.8716 146.236 84.1036 145.907C84.355 145.579 84.529 145.24 84.6256 144.892C84.7416 144.525 84.7996 144.187 84.7996 143.877C84.7996 143.645 84.761 143.355 84.6836 143.007C84.6256 142.64 84.4903 142.273 84.2776 141.905C84.065 141.538 83.7363 141.229 83.2916 140.977C82.8663 140.726 82.2863 140.6 81.5516 140.6H78.5356V147.038H81.5226ZM85.4666 149.648L90.7446 157.884H85.8436L80.4496 149.764L85.4666 149.648ZM98.4745 144.138L98.3585 145.211L98.9965 144.399L105.956 136.54H111.408L102.592 146.11L111.437 157.884H106.101L99.5185 148.778L98.4745 149.822V157.884H94.2115V136.54H98.4745V144.138ZM114.63 136.54H129.188V140.6H118.835V145.153H127.999V149.213H118.835V153.824H129.594V157.884H114.63V136.54ZM132.495 136.54H146.879V140.6H141.688V157.884H137.483V140.6H132.495V136.54Z" fill="white"/>
</svg>
