<svg width="40" height="30" viewBox="0 0 40 30" fill="none" xmlns="http://www.w3.org/2000/svg">
<rect x="1" y="-1" width="18" height="8" transform="matrix(1 0 0 -1 0 8)" stroke="#F2D7D6" stroke-width="2"/>
<rect x="1" y="-1" width="18" height="8" transform="matrix(1 0 0 -1 20 8)" stroke="#C0E8F2" stroke-width="2"/>
<rect x="1" y="-1" width="18" height="8" transform="matrix(1 0 0 -1 0 18)" stroke="#E0F2F7" stroke-width="2"/>
<rect x="1" y="-1" width="18" height="8" transform="matrix(1 0 0 -1 20 18)" stroke="#D0E0C2" stroke-width="2"/>
<rect x="1" y="-1" width="18" height="8" transform="matrix(1 0 0 -1 0 28)" stroke="#F0E68C" stroke-width="2"/>
<rect x="1" y="-1" width="18" height="8" transform="matrix(1 0 0 -1 20 28)" stroke="#D8BFD8" stroke-width="2"/>
</svg>
