<svg width="40" height="30" viewBox="0 0 40 30" fill="none" xmlns="http://www.w3.org/2000/svg">
<rect x="1" y="-1" width="18" height="8" transform="matrix(1 0 0 -1 0 8)" stroke="#0CB2AF" stroke-width="2"/>
<rect x="1" y="-1" width="18" height="8" transform="matrix(1 0 0 -1 20 8)" stroke="#A1C65D" stroke-width="2"/>
<rect x="1" y="-1" width="18" height="8" transform="matrix(1 0 0 -1 0 18)" stroke="#FAC723" stroke-width="2"/>
<rect x="1" y="-1" width="18" height="8" transform="matrix(1 0 0 -1 20 18)" stroke="#F29222" stroke-width="2"/>
<rect x="1" y="-1" width="18" height="8" transform="matrix(1 0 0 -1 0 28)" stroke="#E95E50" stroke-width="2"/>
<rect x="1" y="-1" width="18" height="8" transform="matrix(1 0 0 -1 20 28)" stroke="#936FAC" stroke-width="2"/>
</svg>
